<svg xmlns="http://www.w3.org/2000/svg" xmlns:xlink="http://www.w3.org/1999/xlink" width="105.7" height="92" viewBox="0 0 105.7 92">
  <defs>
    <filter id="D3" x="7.7" y="0" width="98" height="92" filterUnits="userSpaceOnUse">
      <feOffset input="SourceAlpha"/>
      <feGaussianBlur stdDeviation="10" result="blur"/>
      <feFlood flood-color="#fff" flood-opacity="0.451"/>
      <feComposite operator="in" in2="blur"/>
      <feComposite in="SourceGraphic"/>
    </filter>
    <linearGradient id="linear-gradient" x1="0.5" x2="0.5" y2="1" gradientUnits="objectBoundingBox">
      <stop offset="0" stop-color="#b8f081"/>
      <stop offset="1" stop-color="#64f9c8"/>
    </linearGradient>
  </defs>
  <g id="Component_23_3" data-name="Component 23 – 3" transform="translate(0 30)">
    <g transform="matrix(1, 0, 0, 1, 0, -30)" filter="url(#D3)">
      <text id="D3-2" data-name="D3" transform="translate(37.7 57)" fill="#fff" font-size="29" font-family="Ubuntu-Bold, Ubuntu" font-weight="700"><tspan x="0" y="0">D3</tspan></text>
    </g>
    <path id="Intersection_3" data-name="Intersection 3" d="M15.949,26.206a1.753,1.753,0,0,1-.76-1.963l2.727-9.365a1.493,1.493,0,0,1,1.816-.971,1.375,1.375,0,0,1,1.04,1.7L18.8,22.368,25.744,17.7a1.608,1.608,0,0,0,.087-2.654l-4.984-3.794a1.323,1.323,0,0,1-.212-1.946,1.552,1.552,0,0,1,2.083-.2l4.986,3.8a4.266,4.266,0,0,1-.23,7.04l-9.285,6.24a2.058,2.058,0,0,1-2.241.018Zm-5.468-3.041-4.986-3.8a4.267,4.267,0,0,1,.23-7.041l9.286-6.233a2.056,2.056,0,0,1,2.241-.018,1.753,1.753,0,0,1,.76,1.963L15.285,17.4a1.5,1.5,0,0,1-1.817.972,1.376,1.376,0,0,1-1.04-1.7L14.4,9.912,7.453,14.572a1.635,1.635,0,0,0-.742,1.306,1.617,1.617,0,0,0,.657,1.347l4.983,3.794a1.321,1.321,0,0,1,.212,1.946,1.519,1.519,0,0,1-1.148.51A1.541,1.541,0,0,1,10.481,23.165Z" transform="translate(-3.749 0.359)" fill="url(#linear-gradient)"/>
  </g>
</svg>
