<svg xmlns="http://www.w3.org/2000/svg" width="22.656" height="18.413" viewBox="0 0 22.656 18.413">
  <path id="path3611" d="M547.3,588.271a13.135,13.135,0,0,0,13.225-13.225q0-.3-.013-.6a9.453,9.453,0,0,0,2.319-2.407,9.269,9.269,0,0,1-2.669.732,4.665,4.665,0,0,0,2.044-2.571,9.321,9.321,0,0,1-2.952,1.128,4.652,4.652,0,0,0-7.921,4.239,13.2,13.2,0,0,1-9.581-4.857,4.652,4.652,0,0,0,1.439,6.206,4.615,4.615,0,0,1-2.105-.581c0,.02,0,.038,0,.059a4.65,4.65,0,0,0,3.729,4.557,4.638,4.638,0,0,1-2.1.08,4.653,4.653,0,0,0,4.342,3.229,9.325,9.325,0,0,1-5.773,1.99,9.454,9.454,0,0,1-1.109-.064,13.158,13.158,0,0,0,7.125,2.088" transform="translate(-540.179 -569.858)" fill="#ddd"/>
</svg>
