<svg xmlns="http://www.w3.org/2000/svg" width="16" height="16" viewBox="0 0 16 16">
  <defs>
    <style type="text/css">
      .icon-social {
        fill: #ddd;
      }
    </style>
  </defs>
  <path class="icon-social" d="M15.821,1H2.171A1.166,1.166,0,0,0,1.005,2.156v13.7A1.166,1.166,0,0,0,2.171,17H15.835a1.171,1.171,0,0,0,1.17-1.152h0V2.157A1.171,1.171,0,0,0,15.834,1h-.015ZM5.75,14.639H3.374V7H5.75ZM4.563,5.959A1.376,1.376,0,1,1,5.939,4.583h0v0A1.375,1.375,0,0,1,4.564,5.96h0Zm10.073,8.679H12.267V10.926c0-.886-.018-2.025-1.234-2.025-1.236,0-1.424.963-1.424,1.959v3.778H7.239V7H9.515V8.045h.031A2.5,2.5,0,0,1,11.7,6.81l.1,0h0c2.4,0,2.844,1.58,2.844,3.637v4.19Z" transform="translate(-1.005 -1.004)" />
</svg>