<?xml version="1.0" encoding="UTF-8"?>
<svg id="Layer_2" data-name="Layer 2" xmlns="http://www.w3.org/2000/svg" xmlns:xlink="http://www.w3.org/1999/xlink" viewBox="0 0 73.72 21.33">
  <defs>
    <style>
      .cls-1 {
        fill: #fff;
      }

      .cls-2 {
        fill: url(#linear-gradient);
      }
    </style>
    <linearGradient id="linear-gradient" x1="-639.59" y1="602.14" x2="-639.59" y2="601.14" gradientTransform="translate(16449.88 12510.65) scale(25.7 -20.78)" gradientUnits="userSpaceOnUse">
      <stop offset="0" stop-color="#b8f081"/>
      <stop offset="1" stop-color="#64f9c8"/>
    </linearGradient>
  </defs>
  <g id="logotype">
    <g id="d3-group">
      <path id="_3" data-name="3" class="cls-1" d="m72.86,11.87c-.57-.84-1.38-1.48-2.42-1.9.75-.39,1.35-.95,1.8-1.69.44-.74.67-1.51.67-2.3s-.14-1.56-.41-2.24c-.27-.69-.69-1.28-1.25-1.8s-1.27-.91-2.13-1.19c-.86-.28-1.88-.42-3.06-.42-.64,0-1.24.06-1.81.17-.57.12-1.11.26-1.61.43s-.96.37-1.38.58c-.42.21-.78.42-1.09.61l1.54,3.16c.58-.37,1.22-.68,1.93-.93.71-.25,1.47-.38,2.31-.38.33,0,.65.04.97.13.32.09.6.22.84.39.24.17.44.4.59.67.16.27.23.59.23.96,0,.48-.09.88-.28,1.2s-.43.57-.74.75c-.31.18-.66.31-1.06.39-.4.08-.81.12-1.23.12h-1.91v3.48h1.68c.6,0,1.17.04,1.7.13.53.09.99.24,1.38.46.39.22.69.51.91.87.22.36.33.8.33,1.32,0,.85-.31,1.53-.93,2.03-.62.5-1.6.75-2.93.75-1.16,0-2.13-.12-2.91-.36-.78-.24-1.43-.47-1.93-.68l-.84,3.6c.25.12.6.24,1.04.38.44.14.94.26,1.48.38.54.12,1.1.21,1.68.28.58.07,1.13.1,1.65.1,1.39,0,2.6-.16,3.61-.48,1.01-.32,1.85-.76,2.51-1.34s1.14-1.25,1.45-2.03c.31-.78.46-1.64.46-2.57,0-1.18-.29-2.19-.86-3.03Z"/>
      <path id="d" class="cls-1" d="m54.49,2.97c-1.01-.83-2.21-1.44-3.61-1.83-1.4-.39-2.96-.58-4.68-.58-.81,0-1.78.03-2.91.1-1.13.07-2.22.2-3.26.39v19.58c1.04.21,2.11.35,3.19.42s2.03.1,2.84.1c1.78,0,3.38-.21,4.81-.64,1.43-.42,2.64-1.06,3.64-1.91,1-.85,1.76-1.92,2.3-3.22s.81-2.81.81-4.55-.27-3.37-.81-4.67c-.54-1.29-1.31-2.36-2.32-3.19Zm-3.18,12.59c-1.09,1.14-2.77,1.71-5.03,1.71-.39,0-.72,0-1-.01s-.53-.02-.74-.04V4.51c.29-.04.6-.06.93-.07.33,0,.65-.01.96-.01,2.26,0,3.92.54,4.96,1.62s1.57,2.68,1.57,4.78-.55,3.59-1.64,4.73Z"/>
    </g>
    <path id="logomark-group" class="cls-2" d="m12.2,20.46c-.66-.41-.97-1.21-.76-1.96l2.73-9.36c.25-.76,1.05-1.18,1.82-.97.74.16,1.22.89,1.06,1.63,0,.02-.01.05-.02.07l-1.97,6.76,6.94-4.67c.75-.48.97-1.47.49-2.22-.11-.17-.25-.32-.41-.43l-4.98-3.79c-.59-.43-.72-1.26-.29-1.85.02-.03.05-.07.08-.1.54-.6,1.44-.68,2.08-.2l4.99,3.8c1.9,1.39,2.31,4.06.92,5.96-.31.43-.7.79-1.15,1.08l-9.28,6.24c-.68.45-1.56.45-2.24.02h0Zm-5.47-3.04l-4.99-3.8C-.16,12.22-.57,9.55.83,7.65c.31-.43.7-.79,1.15-1.08L11.26.34c.68-.45,1.56-.46,2.24-.02.66.41.97,1.21.76,1.96l-2.73,9.36c-.25.75-1.05,1.18-1.82.97-.74-.16-1.22-.89-1.06-1.63,0-.02,0-.04.02-.07l1.97-6.76-6.95,4.66c-.44.29-.72.78-.74,1.31-.01.53.23,1.03.66,1.35l4.98,3.79c.59.43.72,1.25.29,1.85-.03.03-.05.07-.08.1-.29.33-.71.51-1.15.51-.34,0-.66-.11-.93-.31Z"/>
  </g>
</svg>